<?xml version="1.0" encoding="utf-8"?>
<!-- Generator: Adobe Illustrator 18.1.1, SVG Export Plug-In . SVG Version: 6.00 Build 0)  -->
<!DOCTYPE svg PUBLIC "-//W3C//DTD SVG 1.1//EN" "http://www.w3.org/Graphics/SVG/1.1/DTD/svg11.dtd">
<svg version="1.1" id="Layer_1" xmlns="http://www.w3.org/2000/svg" xmlns:xlink="http://www.w3.org/1999/xlink" x="0px" y="0px"
     viewBox="0 0 392.2 351.1" enable-background="new 0 0 392.2 351.1" xml:space="preserve">
    <polygon fill="#B5B7B9" points="82.6,12.2 82.6,69.8 69.5,44.5 13.4,44.5 80.8,170.1 133.7,75.3 133.7,12.2                 "/>
    <polygon fill="#126C3C" points="107.3,219.6 80.5,169.4 150.6,44.8 205.7,44.8"/>
    <path fill="#126C3C" d="M200.7,72.6l-83.1,147h26.1c13.8-0.3,37.9-14.8,48.3-33l78.2-141.4h-22.7 C228.5,45.6,209.7,57.1,200.7,72.6"/>
    <polygon fill="#B5B7B9" points="377.9,219.7 321.9,219.7 308.8,194.5 308.8,252.1 257.7,252.1 257.7,188.9 310.6,94.2                 "/>
    <polygon fill="#126C3C" points="284,44.6 310.9,94.7 240.8,219.3 185.6,219.3                 "/>
</svg>
